<?xml version="1.0" encoding="UTF-8"?>
<svg xmlns="http://www.w3.org/2000/svg" version="1.1" width="300" height="300" viewBox="0 0 300 300"><rect x="0" y="0" width="300" height="300" fill="#ffffff"/><g transform="scale(7.317)"><g transform="translate(0,0)"><path fill-rule="evenodd" d="M9 0L9 1L8 1L8 2L9 2L9 3L8 3L8 4L10 4L10 2L11 2L11 0ZM12 0L12 1L13 1L13 0ZM16 0L16 1L15 1L15 2L14 2L14 3L16 3L16 2L17 2L17 0ZM19 0L19 1L18 1L18 2L19 2L19 3L18 3L18 4L14 4L14 7L15 7L15 5L18 5L18 8L17 8L17 6L16 6L16 9L17 9L17 12L16 12L16 10L15 10L15 9L14 9L14 8L13 8L13 6L12 6L12 8L11 8L11 6L10 6L10 9L11 9L11 10L9 10L9 8L6 8L6 9L7 9L7 10L5 10L5 8L0 8L0 10L1 10L1 9L2 9L2 10L3 10L3 11L1 11L1 12L0 12L0 16L1 16L1 17L2 17L2 16L3 16L3 18L1 18L1 20L0 20L0 21L1 21L1 22L0 22L0 23L2 23L2 24L4 24L4 23L5 23L5 24L6 24L6 25L7 25L7 24L6 24L6 23L8 23L8 24L9 24L9 23L10 23L10 25L11 25L11 26L10 26L10 27L9 27L9 28L8 28L8 30L6 30L6 29L7 29L7 28L5 28L5 27L4 27L4 25L3 25L3 27L4 27L4 31L3 31L3 30L2 30L2 31L3 31L3 32L2 32L2 33L3 33L3 32L4 32L4 33L5 33L5 32L6 32L6 33L8 33L8 35L9 35L9 36L8 36L8 41L12 41L12 39L14 39L14 38L18 38L18 39L19 39L19 40L17 40L17 39L16 39L16 41L21 41L21 40L24 40L24 41L26 41L26 40L25 40L25 39L26 39L26 38L25 38L25 37L30 37L30 39L31 39L31 40L33 40L33 39L31 39L31 37L30 37L30 36L32 36L32 38L33 38L33 37L37 37L37 38L36 38L36 39L35 39L35 38L34 38L34 39L35 39L35 40L34 40L34 41L36 41L36 39L39 39L39 40L37 40L37 41L39 41L39 40L40 40L40 39L39 39L39 38L41 38L41 37L40 37L40 36L41 36L41 35L40 35L40 34L41 34L41 31L39 31L39 32L38 32L38 35L40 35L40 36L38 36L38 37L37 37L37 31L38 31L38 30L37 30L37 29L39 29L39 30L41 30L41 29L40 29L40 28L41 28L41 27L40 27L40 26L41 26L41 24L40 24L40 23L39 23L39 24L37 24L37 23L36 23L36 24L37 24L37 25L32 25L32 24L33 24L33 22L32 22L32 21L34 21L34 22L35 22L35 21L36 21L36 22L37 22L37 21L39 21L39 20L38 20L38 19L37 19L37 17L39 17L39 16L40 16L40 15L39 15L39 16L37 16L37 15L36 15L36 16L37 16L37 17L34 17L34 18L33 18L33 16L35 16L35 13L36 13L36 14L38 14L38 13L40 13L40 14L41 14L41 13L40 13L40 11L39 11L39 12L38 12L38 11L37 11L37 10L38 10L38 8L37 8L37 9L36 9L36 8L35 8L35 9L34 9L34 8L33 8L33 10L32 10L32 9L30 9L30 8L31 8L31 6L30 6L30 5L33 5L33 4L32 4L32 3L33 3L33 2L31 2L31 4L30 4L30 3L29 3L29 4L28 4L28 2L29 2L29 1L27 1L27 2L26 2L26 3L25 3L25 0L21 0L21 1L22 1L22 2L21 2L21 3L22 3L22 2L23 2L23 3L24 3L24 4L20 4L20 5L18 5L18 4L19 4L19 3L20 3L20 2L19 2L19 1L20 1L20 0ZM30 0L30 1L33 1L33 0ZM9 1L9 2L10 2L10 1ZM23 1L23 2L24 2L24 1ZM12 2L12 3L11 3L11 4L12 4L12 3L13 3L13 2ZM26 3L26 4L27 4L27 5L28 5L28 4L27 4L27 3ZM24 4L24 5L22 5L22 6L21 6L21 5L20 5L20 6L19 6L19 7L20 7L20 6L21 6L21 7L22 7L22 6L23 6L23 7L24 7L24 6L25 6L25 8L26 8L26 6L25 6L25 4ZM8 5L8 7L9 7L9 5ZM27 6L27 7L28 7L28 6ZM29 6L29 8L30 8L30 6ZM32 6L32 7L33 7L33 6ZM12 8L12 10L11 10L11 11L10 11L10 12L11 12L11 16L10 16L10 15L9 15L9 14L10 14L10 13L8 13L8 16L7 16L7 15L6 15L6 14L7 14L7 13L3 13L3 12L1 12L1 13L2 13L2 14L1 14L1 15L2 15L2 14L4 14L4 15L5 15L5 18L3 18L3 19L2 19L2 20L1 20L1 21L3 21L3 22L2 22L2 23L4 23L4 21L5 21L5 22L8 22L8 20L9 20L9 22L10 22L10 23L11 23L11 22L13 22L13 23L12 23L12 24L14 24L14 25L15 25L15 26L17 26L17 24L19 24L19 22L20 22L20 23L21 23L21 22L20 22L20 21L24 21L24 22L22 22L22 23L24 23L24 24L20 24L20 26L19 26L19 25L18 25L18 27L20 27L20 28L17 28L17 27L14 27L14 28L13 28L13 25L12 25L12 26L11 26L11 27L10 27L10 28L11 28L11 29L10 29L10 30L8 30L8 31L6 31L6 32L8 32L8 31L9 31L9 32L10 32L10 33L9 33L9 35L10 35L10 37L9 37L9 38L10 38L10 39L9 39L9 40L10 40L10 39L11 39L11 38L14 38L14 37L18 37L18 38L20 38L20 39L24 39L24 38L23 38L23 36L22 36L22 38L20 38L20 37L21 37L21 35L24 35L24 37L25 37L25 36L27 36L27 35L26 35L26 33L25 33L25 32L26 32L26 29L27 29L27 30L29 30L29 28L30 28L30 29L31 29L31 28L32 28L32 30L30 30L30 31L28 31L28 33L27 33L27 34L28 34L28 36L30 36L30 35L31 35L31 34L32 34L32 33L31 33L31 32L35 32L35 31L36 31L36 30L34 30L34 29L37 29L37 28L39 28L39 27L37 27L37 26L40 26L40 25L37 25L37 26L36 26L36 28L35 28L35 26L34 26L34 27L32 27L32 26L30 26L30 25L29 25L29 24L30 24L30 23L31 23L31 24L32 24L32 22L31 22L31 21L32 21L32 20L31 20L31 19L33 19L33 20L34 20L34 21L35 21L35 20L36 20L36 21L37 21L37 19L33 19L33 18L31 18L31 16L33 16L33 15L34 15L34 13L35 13L35 11L36 11L36 9L35 9L35 10L33 10L33 11L32 11L32 10L31 10L31 12L34 12L34 13L32 13L32 14L30 14L30 13L27 13L27 12L28 12L28 11L29 11L29 12L30 12L30 11L29 11L29 10L30 10L30 9L27 9L27 10L25 10L25 9L24 9L24 8L23 8L23 9L22 9L22 8L21 8L21 9L20 9L20 10L19 10L19 9L18 9L18 11L19 11L19 12L17 12L17 13L16 13L16 12L15 12L15 11L14 11L14 12L13 12L13 11L12 11L12 10L13 10L13 8ZM39 8L39 10L41 10L41 9L40 9L40 8ZM21 9L21 10L22 10L22 11L21 11L21 12L19 12L19 13L18 13L18 14L19 14L19 13L21 13L21 14L20 14L20 15L21 15L21 16L20 16L20 17L19 17L19 16L16 16L16 15L17 15L17 14L16 14L16 13L15 13L15 12L14 12L14 13L15 13L15 14L13 14L13 13L12 13L12 14L13 14L13 15L12 15L12 16L13 16L13 17L11 17L11 18L12 18L12 19L11 19L11 20L12 20L12 21L13 21L13 22L14 22L14 24L15 24L15 22L18 22L18 21L20 21L20 20L22 20L22 19L23 19L23 20L24 20L24 21L26 21L26 22L24 22L24 23L26 23L26 24L25 24L25 25L27 25L27 24L29 24L29 21L31 21L31 20L29 20L29 18L30 18L30 16L28 16L28 15L29 15L29 14L26 14L26 16L25 16L25 14L24 14L24 13L26 13L26 12L24 12L24 11L23 11L23 10L24 10L24 9L23 9L23 10L22 10L22 9ZM4 10L4 11L5 11L5 10ZM27 10L27 11L28 11L28 10ZM6 11L6 12L9 12L9 11ZM11 11L11 12L12 12L12 11ZM22 11L22 12L21 12L21 13L23 13L23 11ZM36 12L36 13L37 13L37 12ZM21 14L21 15L22 15L22 16L21 16L21 17L20 17L20 18L19 18L19 19L18 19L18 17L15 17L15 15L13 15L13 16L14 16L14 17L13 17L13 19L12 19L12 20L13 20L13 21L18 21L18 20L20 20L20 18L21 18L21 19L22 19L22 18L23 18L23 19L24 19L24 18L23 18L23 17L24 17L24 16L23 16L23 15L24 15L24 14L23 14L23 15L22 15L22 14ZM32 14L32 15L33 15L33 14ZM6 16L6 17L7 17L7 18L5 18L5 19L4 19L4 20L3 20L3 21L4 21L4 20L5 20L5 21L7 21L7 20L5 20L5 19L7 19L7 18L10 18L10 16L9 16L9 17L7 17L7 16ZM22 16L22 17L21 17L21 18L22 18L22 17L23 17L23 16ZM27 17L27 18L28 18L28 17ZM40 17L40 18L39 18L39 19L40 19L40 18L41 18L41 17ZM15 18L15 19L14 19L14 20L17 20L17 18ZM25 18L25 20L26 20L26 21L27 21L27 22L26 22L26 23L27 23L27 22L28 22L28 21L29 21L29 20L28 20L28 19L27 19L27 20L26 20L26 18ZM40 21L40 22L41 22L41 21ZM16 23L16 24L17 24L17 23ZM34 23L34 24L35 24L35 23ZM1 25L1 26L0 26L0 27L1 27L1 28L0 28L0 33L1 33L1 29L2 29L2 27L1 27L1 26L2 26L2 25ZM21 25L21 26L22 26L22 27L21 27L21 28L20 28L20 29L21 29L21 28L23 28L23 26L24 26L24 25ZM6 26L6 27L7 27L7 26ZM25 26L25 27L24 27L24 28L25 28L25 29L22 29L22 30L20 30L20 31L21 31L21 32L20 32L20 33L19 33L19 31L18 31L18 32L16 32L16 31L17 31L17 30L16 30L16 29L17 29L17 28L14 28L14 29L15 29L15 31L14 31L14 32L13 32L13 31L12 31L12 33L10 33L10 34L12 34L12 33L14 33L14 34L15 34L15 35L14 35L14 36L16 36L16 35L17 35L17 34L15 34L15 33L19 33L19 34L18 34L18 35L19 35L19 36L18 36L18 37L19 37L19 36L20 36L20 35L19 35L19 34L20 34L20 33L21 33L21 34L24 34L24 32L25 32L25 31L24 31L24 32L23 32L23 33L21 33L21 32L22 32L22 30L25 30L25 29L26 29L26 28L28 28L28 27L29 27L29 26ZM25 27L25 28L26 28L26 27ZM30 27L30 28L31 28L31 27ZM33 28L33 29L34 29L34 28ZM12 29L12 30L13 30L13 29ZM18 29L18 30L19 30L19 29ZM10 30L10 31L11 31L11 30ZM14 32L14 33L15 33L15 32ZM29 32L29 33L28 33L28 34L29 34L29 33L30 33L30 34L31 34L31 33L30 33L30 32ZM39 32L39 34L40 34L40 32ZM33 33L33 36L36 36L36 33ZM34 34L34 35L35 35L35 34ZM12 35L12 36L11 36L11 37L10 37L10 38L11 38L11 37L13 37L13 35ZM27 38L27 41L30 41L30 40L29 40L29 38ZM13 40L13 41L14 41L14 40ZM0 0L0 7L7 7L7 0ZM1 1L1 6L6 6L6 1ZM2 2L2 5L5 5L5 2ZM34 0L34 7L41 7L41 0ZM35 1L35 6L40 6L40 1ZM36 2L36 5L39 5L39 2ZM0 34L0 41L7 41L7 34ZM1 35L1 40L6 40L6 35ZM2 36L2 39L5 39L5 36Z" fill="#000000"/></g></g></svg>